<svg viewBox="0 0 80 80" fill="none" xmlns="http://www.w3.org/2000/svg">
  <!-- Premium geometric outer ring -->
  <circle
    cx="40"
    cy="40"
    r="38"
    fill="none"
    stroke="url(#emeraldGradient)"
    stroke-width="2"
    opacity="0.2"
  />
  
  <!-- Precision inner ring -->
  <circle
    cx="40"
    cy="40"
    r="32"
    fill="none"
    stroke="url(#emeraldGradient)"
    stroke-width="1.5"
    opacity="0.4"
  />

  <!-- Main logo container - sophisticated hexagonal base -->
  <path
    d="M40 8 L62 24 L62 56 L40 72 L18 56 L18 24 Z"
    fill="url(#primaryGradient)"
    stroke="url(#accentGradient)"
    stroke-width="1"
    filter="url(#dropShadow)"
  />

  <!-- Inner architectural frame -->
  <path
    d="M40 16 L56 28 L56 52 L40 64 L24 52 L24 28 Z"
    fill="none"
    stroke="url(#innerGradient)"
    stroke-width="0.8"
    opacity="0.6"
  />

  <!-- The Premium 'M' - Masterpiece Typography -->
  <g transform="translate(40, 40)">
    <!-- Main M structure - Bold and architectural -->
    <path
      d="M-16 -14 L-16 14 M-16 -14 L-4 6 M-4 6 L8 -14 M8 -14 L8 14 M-4 6 L4 -4"
      stroke="#065f46"
      stroke-width="3.5"
      stroke-linecap="round"
      stroke-linejoin="round"
      fill="none"
      filter="url(#textShadow)"
    />
    
    <!-- Sophisticated inner details -->
    <path
      d="M-14 -10 L-8 2 M6 -10 L10 -2"
      stroke="#059669"
      stroke-width="1.8"
      stroke-linecap="round"
      opacity="0.8"
    />
    
    <!-- Premium accent lines -->
    <path
      d="M-16 12 L-12 12 M6 12 L10 12"
      stroke="#10b981"
      stroke-width="2.5"
      stroke-linecap="round"
      opacity="0.9"
    />
    
    <!-- Center precision point -->
    <circle
      cx="0"
      cy="2"
      r="1.5"
      fill="#065f46"
      filter="url(#textShadow)"
    />
  </g>

  <!-- Precision corner markers - Fortune 500 attention to detail -->
  <g opacity="0.4">
    <path d="M20 20 L24 20 L24 24" stroke="#059669" stroke-width="1.2" stroke-linecap="round"/>
    <path d="M60 20 L56 20 L56 24" stroke="#059669" stroke-width="1.2" stroke-linecap="round"/>
    <path d="M20 60 L24 60 L24 56" stroke="#059669" stroke-width="1.2" stroke-linecap="round"/>
    <path d="M60 60 L56 60 L56 56" stroke="#059669" stroke-width="1.2" stroke-linecap="round"/>
  </g>

  <!-- Gradients and filters for premium finish -->
  <defs>
    <linearGradient id="primaryGradient" x1="0%" y1="0%" x2="100%" y2="100%">
      <stop offset="0%" stop-color="#ecfdf5" stop-opacity="0.95"/>
      <stop offset="50%" stop-color="#d1fae5" stop-opacity="0.9"/>
      <stop offset="100%" stop-color="#a7f3d0" stop-opacity="0.85"/>
    </linearGradient>
    
    <linearGradient id="emeraldGradient" x1="0%" y1="0%" x2="100%" y2="100%">
      <stop offset="0%" stop-color="#059669"/>
      <stop offset="100%" stop-color="#065f46"/>
    </linearGradient>
    
    <linearGradient id="accentGradient" x1="0%" y1="0%" x2="100%" y2="100%">
      <stop offset="0%" stop-color="#10b981"/>
      <stop offset="100%" stop-color="#059669"/>
    </linearGradient>
    
    <linearGradient id="innerGradient" x1="0%" y1="0%" x2="100%" y2="100%">
      <stop offset="0%" stop-color="#6ee7b7" stop-opacity="0.8"/>
      <stop offset="100%" stop-color="#34d399" stop-opacity="0.6"/>
    </linearGradient>
    
    <filter id="dropShadow" x="-20%" y="-20%" width="140%" height="140%">
      <feDropShadow dx="0" dy="2" stdDeviation="3" flood-color="#065f46" flood-opacity="0.1"/>
    </filter>
    
    <filter id="textShadow" x="-20%" y="-20%" width="140%" height="140%">
      <feDropShadow dx="0" dy="1" stdDeviation="1" flood-color="#065f46" flood-opacity="0.2"/>
    </filter>
  </defs>
</svg>
